{
  "accessors": [
    {
      "bufferView": 2,
      "componentType": 5126,
      "count": 65532,
      "max": [
        44.058940887451172,
        10.086380004882812,
        -72.861038208007812
      ],
      "min": [
        -44.916358947753906,
        -48.7193603515625,
        -74.090171813964844
      ],
      "type": "VEC3"
    },
    {
      "bufferView": 2,
      "byteOffset": 786384,
      "componentType": 5126,
      "count": 65532,
      "max": [
        0.76899564266204834,
        0.45673653483390808,
        -0.32268670201301575
      ],
      "min": [
        -0.86079299449920654,
        -0.90575689077377319,
        -1
      ],
      "type": "VEC3"
    },
    {
      "bufferView": 1,
      "componentType": 5126,
      "count": 65532,
      "max": [
        0.99927002191543579,
        0.97728997468948364
      ],
      "min": [
        0.63159000873565674,
        0.16723999381065369
      ],
      "type": "VEC2"
    },
    {
      "bufferView": 0,
      "componentType": 5125,
      "count": 65532,
      "max": [
        65531
      ],
      "min": [
        0
      ],
      "type": "SCALAR"
    },
    {
      "bufferView": 2,
      "byteOffset": 1572768,
      "componentType": 5126,
      "count": 65533,
      "max": [
        45.986740112304688,
        50.467208862304688,
        -19.577390670776367
      ],
      "min": [
        -45.777389526367188,
        -50.487880706787109,
        -74.090606689453125
      ],
      "type": "VEC3"
    },
    {
      "bufferView": 2,
      "byteOffset": 2359164,
      "componentType": 5126,
      "count": 65533,
      "max": [
        0.99991846084594727,
        0.99985700845718384,
        0.99395257234573364
      ],
      "min": [
        -0.9997100830078125,
        -0.9999585747718811,
        -1
      ],
      "type": "VEC3"
    },
    {
      "bufferView": 1,
      "byteOffset": 524256,
      "componentType": 5126,
      "count": 65533,
      "max": [
        0.99927002191543579,
        0.98607999086380005
      ],
      "min": [
        0.0075400001369416714,
        0.077550001442432404
      ],
      "type": "VEC2"
    },
    {
      "bufferView": 0,
      "byteOffset": 262128,
      "componentType": 5125,
      "count": 184884,
      "max": [
        65532
      ],
      "min": [
        0
      ],
      "type": "SCALAR"
    },
    {
      "bufferView": 2,
      "byteOffset": 3145560,
      "componentType": 5126,
      "count": 65532,
      "max": [
        45.986740112304688,
        50.487880706787109,
        -14.892470359802246
      ],
      "min": [
        -45.986740112304688,
        -50.46221923828125,
        -71.634086608886719
      ],
      "type": "VEC3"
    },
    {
      "bufferView": 2,
      "byteOffset": 3931944,
      "componentType": 5126,
      "count": 65532,
      "max": [
        0.99993270635604858,
        0.99999761581420898,
        0.99996525049209595
      ],
      "min": [
        -0.99978697299957275,
        -0.9998699426651001,
        -0.99664503335952759
      ],
      "type": "VEC3"
    },
    {
      "bufferView": 1,
      "byteOffset": 1048520,
      "componentType": 5126,
      "count": 65532,
      "max": [
        0.99927002191543579,
        0.99406999349594116
      ],
      "min": [
        0.0058100000023841858,
        0.019940000027418137
      ],
      "type": "VEC2"
    },
    {
      "bufferView": 0,
      "byteOffset": 1001664,
      "componentType": 5125,
      "count": 294681,
      "max": [
        65531
      ],
      "min": [
        0
      ],
      "type": "SCALAR"
    },
    {
      "bufferView": 2,
      "byteOffset": 4718328,
      "componentType": 5126,
      "count": 43883,
      "max": [
        44.149860382080078,
        49.740119934082031,
        -14.259220123291016
      ],
      "min": [
        -43.327610015869141,
        -45.575870513916016,
        -30.327140808105469
      ],
      "type": "VEC3"
    },
    {
      "bufferView": 2,
      "byteOffset": 5244924,
      "componentType": 5126,
      "count": 43883,
      "max": [
        0.99975734949111938,
        0.99992907047271729,
        0.99999088048934937
      ],
      "min": [
        -0.99987751245498657,
        -0.99976277351379395,
        -0.99995702505111694
      ],
      "type": "VEC3"
    },
    {
      "bufferView": 1,
      "byteOffset": 1572776,
      "componentType": 5126,
      "count": 43883,
      "max": [
        0.99927002191543579,
        0.99414002895355225
      ],
      "min": [
        0.0073099997825920582,
        0.005350000225007534
      ],
      "type": "VEC2"
    },
    {
      "bufferView": 0,
      "byteOffset": 2180388,
      "componentType": 5125,
      "count": 199743,
      "max": [
        43882
      ],
      "min": [
        0
      ],
      "type": "SCALAR"
    }
  ],
  "asset": {
    "extras": {
      "author": "ronenh (https://sketchfab.com/ronenh)",
      "license": "CC-BY-ND-4.0 (http://creativecommons.org/licenses/by-nd/4.0/)",
      "source": "https://sketchfab.com/3d-models/red-velvet-cake-6c7cbc89467b4ced903514fc11ba9176",
      "title": "Red Velvet Cake"
    },
    "generator": "Sketchfab-7.90.0",
    "version": "2.0"
  },
  "bufferViews": [
    {
      "buffer": 0,
      "byteLength": 2979360,
      "byteOffset": 0,
      "name": "floatBufferViews",
      "target": 34963
    },
    {
      "buffer": 0,
      "byteLength": 1923840,
      "byteOffset": 2979360,
      "byteStride": 8,
      "name": "floatBufferViews",
      "target": 34962
    },
    {
      "buffer": 0,
      "byteLength": 5771520,
      "byteOffset": 4903200,
      "byteStride": 12,
      "name": "floatBufferViews",
      "target": 34962
    }
  ],
  "buffers": [
    {
      "byteLength": 10674720,
      "uri": "scene.bin"
    }
  ],
  "extensionsUsed": [
    "KHR_materials_unlit"
  ],
  "images": [
    {
      "uri": "textures/material0_baseColor.jpeg"
    }
  ],
  "materials": [
    {
      "doubleSided": true,
      "emissiveFactor": [
        0,
        0,
        0
      ],
      "emissiveTexture": {
        "index": 0,
        "texCoord": 0
      },
      "extensions": {
        "KHR_materials_unlit": {}
      },
      "name": "material0",
      "pbrMetallicRoughness": {
        "baseColorFactor": [
          1,
          1,
          1,
          1
        ],
        "baseColorTexture": {
          "index": 0,
          "texCoord": 0
        },
        "metallicFactor": 0,
        "roughnessFactor": 1
      }
    }
  ],
  "meshes": [
    {
      "primitives": [
        {
          "attributes": {
            "NORMAL": 1,
            "POSITION": 0,
            "TEXCOORD_0": 2
          },
          "indices": 3,
          "material": 0,
          "mode": 4
        }
      ]
    },
    {
      "primitives": [
        {
          "attributes": {
            "NORMAL": 5,
            "POSITION": 4,
            "TEXCOORD_0": 6
          },
          "indices": 7,
          "material": 0,
          "mode": 4
        }
      ]
    },
    {
      "primitives": [
        {
          "attributes": {
            "NORMAL": 9,
            "POSITION": 8,
            "TEXCOORD_0": 10
          },
          "indices": 11,
          "material": 0,
          "mode": 4
        }
      ]
    },
    {
      "primitives": [
        {
          "attributes": {
            "NORMAL": 13,
            "POSITION": 12,
            "TEXCOORD_0": 14
          },
          "indices": 15,
          "material": 0,
          "mode": 4
        }
      ]
    }
  ],
  "nodes": [
    {
      "children": [
        1
      ],
      "name": "RootNode (gltf orientation matrix)",
      "rotation": [
        -0.70710678118654746,
        -0,
        -0,
        0.70710678118654757
      ]
    },
    {
      "children": [
        2
      ],
      "name": "RootNode (model correction matrix)"
    },
    {
      "children": [
        3,
        4,
        5,
        6
      ],
      "name": "model_Red Velvet Cake_20200306_165336010.obj.cleaner.materialmerger.gles"
    },
    {
      "mesh": 0,
      "name": ""
    },
    {
      "mesh": 1,
      "name": ""
    },
    {
      "mesh": 2,
      "name": ""
    },
    {
      "mesh": 3,
      "name": ""
    }
  ],
  "samplers": [
    {
      "magFilter": 9729,
      "minFilter": 9987,
      "wrapS": 10497,
      "wrapT": 10497
    }
  ],
  "scene": 0,
  "scenes": [
    {
      "name": "OSG_Scene",
      "nodes": [
        0
      ]
    }
  ],
  "textures": [
    {
      "sampler": 0,
      "source": 0
    }
  ]
}

