{
    "asset" : {
        "generator" : "Khronos glTF Blender I/O v0.9.36",
        "version" : "2.0"
    },
    "scene" : 0,
    "scenes" : [
        {
            "name" : "Scene",
            "nodes" : [
                0,
                1
            ]
        }
    ],
    "nodes" : [
        {
            "mesh" : 0,
            "name" : "Letter_A_Font_mat_0.001",
            "translation" : [
                3.9059321880340576,
                -0.058229658752679825,
                4.939881801605225
            ]
        },
        {
            "mesh" : 1,
            "name" : "Letter_B_Font_mat_0.001",
            "translation" : [
                2.712104320526123,
                -0.05458600074052811,
                4.94632625579834
            ]
        }
    ],
    "materials" : [
        {
            "doubleSided" : true,
            "emissiveFactor" : [
                0,
                0,
                0
            ],
            "name" : "Font_mat.002",
            "pbrMetallicRoughness" : {
                "baseColorFactor" : [
                    1,
                    1,
                    1,
                    1
                ],
                "metallicFactor" : 0,
                "roughnessFactor" : 0.6000000238418579
            }
        }
    ],
    "meshes" : [
        {
            "name" : "Letter_A_Font_mat_0.003",
            "primitives" : [
                {
                    "attributes" : {
                        "POSITION" : 0,
                        "NORMAL" : 1,
                        "TEXCOORD_0" : 2
                    },
                    "indices" : 3,
                    "material" : 0
                }
            ]
        },
        {
            "name" : "Letter_B_Font_mat_0.002",
            "primitives" : [
                {
                    "attributes" : {
                        "POSITION" : 4,
                        "NORMAL" : 5,
                        "TEXCOORD_0" : 6
                    },
                    "indices" : 7,
                    "material" : 0
                }
            ]
        }
    ],
    "accessors" : [
        {
            "bufferView" : 0,
            "componentType" : 5126,
            "count" : 532,
            "max" : [
                -3.3418617248535156,
                0.09999999403953552,
                -4.737119674682617
            ],
            "min" : [
                -3.8810226917266846,
                8.940696716308594e-08,
                -5.277204513549805
            ],
            "type" : "VEC3"
        },
        {
            "bufferView" : 1,
            "componentType" : 5126,
            "count" : 532,
            "type" : "VEC3"
        },
        {
            "bufferView" : 2,
            "componentType" : 5126,
            "count" : 532,
            "type" : "VEC2"
        },
        {
            "bufferView" : 3,
            "componentType" : 5123,
            "count" : 624,
            "type" : "SCALAR"
        },
        {
            "bufferView" : 4,
            "componentType" : 5126,
            "count" : 481,
            "max" : [
                -2.727992534637451,
                0.09999999403953552,
                -4.741865158081055
            ],
            "min" : [
                -3.267153263092041,
                8.940696716308594e-08,
                -5.281949996948242
            ],
            "type" : "VEC3"
        },
        {
            "bufferView" : 5,
            "componentType" : 5126,
            "count" : 481,
            "type" : "VEC3"
        },
        {
            "bufferView" : 6,
            "componentType" : 5126,
            "count" : 481,
            "type" : "VEC2"
        },
        {
            "bufferView" : 7,
            "componentType" : 5123,
            "count" : 708,
            "type" : "SCALAR"
        }
    ],
    "bufferViews" : [
        {
            "buffer" : 0,
            "byteLength" : 6384,
            "byteOffset" : 0
        },
        {
            "buffer" : 0,
            "byteLength" : 6384,
            "byteOffset" : 6384
        },
        {
            "buffer" : 0,
            "byteLength" : 4256,
            "byteOffset" : 12768
        },
        {
            "buffer" : 0,
            "byteLength" : 1248,
            "byteOffset" : 17024
        },
        {
            "buffer" : 0,
            "byteLength" : 5772,
            "byteOffset" : 18272
        },
        {
            "buffer" : 0,
            "byteLength" : 5772,
            "byteOffset" : 24044
        },
        {
            "buffer" : 0,
            "byteLength" : 3848,
            "byteOffset" : 29816
        },
        {
            "buffer" : 0,
            "byteLength" : 1416,
            "byteOffset" : 33664
        }
    ],
    "buffers" : [
        {
            "byteLength" : 35080,
            "uri" : "data:application/octet-stream;base64,"
        }
    ]
}
