{
    "asset" : {
        "generator" : "Khronos glTF Blender I/O v0.9.36",
        "version" : "2.0"
    },
    "scene" : 0,
    "scenes" : [
        {
            "name" : "Scene",
            "nodes" : [
                0,
                1
            ]
        }
    ],
    "nodes" : [
        {
            "mesh" : 0,
            "name" : "Letter_D_Font_mat_0.001",
            "translation" : [
                1.5203793048858643,
                -0.03988519310951233,
                5.050424098968506
            ]
        },
        {
            "mesh" : 1,
            "name" : "Letter_O_Font_mat_0.001",
            "translation" : [
                3.3150103092193604,
                -0.04784126952290535,
                4.316543102264404
            ]
        }
    ],
    "materials" : [
        {
            "doubleSided" : true,
            "emissiveFactor" : [
                0,
                0,
                0
            ],
            "name" : "Font_mat.012",
            "pbrMetallicRoughness" : {
                "baseColorFactor" : [
                    1,
                    1,
                    1,
                    1
                ],
                "metallicFactor" : 0,
                "roughnessFactor" : 0.6000000238418579
            }
        },
        {
            "doubleSided" : true,
            "emissiveFactor" : [
                0,
                0,
                0
            ],
            "name" : "Font_mat.008",
            "pbrMetallicRoughness" : {
                "baseColorFactor" : [
                    1,
                    1,
                    1,
                    1
                ],
                "metallicFactor" : 0,
                "roughnessFactor" : 0.6000000238418579
            }
        }
    ],
    "meshes" : [
        {
            "name" : "Letter_D_Font_mat_0.006",
            "primitives" : [
                {
                    "attributes" : {
                        "POSITION" : 0,
                        "NORMAL" : 1,
                        "TEXCOORD_0" : 2
                    },
                    "indices" : 3,
                    "material" : 0
                }
            ]
        },
        {
            "name" : "Letter_O_Font_mat_0.004",
            "primitives" : [
                {
                    "attributes" : {
                        "POSITION" : 4,
                        "NORMAL" : 5,
                        "TEXCOORD_0" : 6
                    },
                    "indices" : 7,
                    "material" : 1
                }
            ]
        }
    ],
    "accessors" : [
        {
            "bufferView" : 0,
            "componentType" : 5126,
            "count" : 513,
            "max" : [
                -1.5359991788864136,
                0.09999999403953552,
                -4.737006664276123
            ],
            "min" : [
                -2.075160026550293,
                8.940696716308594e-08,
                -5.2770915031433105
            ],
            "type" : "VEC3"
        },
        {
            "bufferView" : 1,
            "componentType" : 5126,
            "count" : 513,
            "type" : "VEC3"
        },
        {
            "bufferView" : 2,
            "componentType" : 5126,
            "count" : 513,
            "type" : "VEC2"
        },
        {
            "bufferView" : 3,
            "componentType" : 5123,
            "count" : 624,
            "type" : "SCALAR"
        },
        {
            "bufferView" : 4,
            "componentType" : 5126,
            "count" : 546,
            "max" : [
                -2.7397778034210205,
                0.09999999403953552,
                -4.009095668792725
            ],
            "min" : [
                -3.2789385318756104,
                8.940696716308594e-08,
                -4.549180507659912
            ],
            "type" : "VEC3"
        },
        {
            "bufferView" : 5,
            "componentType" : 5126,
            "count" : 546,
            "type" : "VEC3"
        },
        {
            "bufferView" : 6,
            "componentType" : 5126,
            "count" : 546,
            "type" : "VEC2"
        },
        {
            "bufferView" : 7,
            "componentType" : 5123,
            "count" : 624,
            "type" : "SCALAR"
        }
    ],
    "bufferViews" : [
        {
            "buffer" : 0,
            "byteLength" : 6156,
            "byteOffset" : 0
        },
        {
            "buffer" : 0,
            "byteLength" : 6156,
            "byteOffset" : 6156
        },
        {
            "buffer" : 0,
            "byteLength" : 4104,
            "byteOffset" : 12312
        },
        {
            "buffer" : 0,
            "byteLength" : 1248,
            "byteOffset" : 16416
        },
        {
            "buffer" : 0,
            "byteLength" : 6552,
            "byteOffset" : 17664
        },
        {
            "buffer" : 0,
            "byteLength" : 6552,
            "byteOffset" : 24216
        },
        {
            "buffer" : 0,
            "byteLength" : 4368,
            "byteOffset" : 30768
        },
        {
            "buffer" : 0,
            "byteLength" : 1248,
            "byteOffset" : 35136
        }
    ],
    "buffers" : [
        {
            "byteLength" : 36384,
            "uri" : "data:application/octet-stream;base64,"
        }
    ]
}
