{
    "asset" : {
        "generator" : "Khronos glTF Blender I/O v0.9.36",
        "version" : "2.0"
    },
    "scene" : 0,
    "scenes" : [
        {
            "name" : "Scene",
            "nodes" : [
                0,
                1
            ]
        }
    ],
    "nodes" : [
        {
            "mesh" : 0,
            "name" : "Letter_I_Font_mat_0.001",
            "translation" : [
                -0.9764192700386047,
                -0.029184093698859215,
                5.080687999725342
            ]
        },
        {
            "mesh" : 1,
            "name" : "Letter_M_Font_mat_0.001",
            "translation" : [
                -3.9481687545776367,
                -0.030729010701179504,
                5.080625057220459
            ]
        }
    ],
    "materials" : [
        {
            "doubleSided" : true,
            "emissiveFactor" : [
                0,
                0,
                0
            ],
            "name" : "Font_mat.020",
            "pbrMetallicRoughness" : {
                "baseColorFactor" : [
                    1,
                    1,
                    1,
                    1
                ],
                "metallicFactor" : 0,
                "roughnessFactor" : 0.6000000238418579
            }
        }
    ],
    "meshes" : [
        {
            "name" : "Letter_I_Font_mat_0.010",
            "primitives" : [
                {
                    "attributes" : {
                        "POSITION" : 0,
                        "NORMAL" : 1,
                        "TEXCOORD_0" : 2
                    },
                    "indices" : 3,
                    "material" : 0
                }
            ]
        },
        {
            "name" : "Letter_M_Font_mat_0.010",
            "primitives" : [
                {
                    "attributes" : {
                        "POSITION" : 4,
                        "NORMAL" : 5,
                        "TEXCOORD_0" : 6
                    },
                    "indices" : 7,
                    "material" : 0
                }
            ]
        }
    ],
    "accessors" : [
        {
            "bufferView" : 0,
            "componentType" : 5126,
            "count" : 414,
            "max" : [
                1.4802299737930298,
                0.09999999403953552,
                -4.7393798828125
            ],
            "min" : [
                1.0180920362472534,
                8.940696716308594e-08,
                -5.2794647216796875
            ],
            "type" : "VEC3"
        },
        {
            "bufferView" : 1,
            "componentType" : 5126,
            "count" : 414,
            "type" : "VEC3"
        },
        {
            "bufferView" : 2,
            "componentType" : 5126,
            "count" : 414,
            "type" : "VEC2"
        },
        {
            "bufferView" : 3,
            "componentType" : 5123,
            "count" : 468,
            "type" : "SCALAR"
        },
        {
            "bufferView" : 4,
            "componentType" : 5126,
            "count" : 594,
            "max" : [
                3.891753673553467,
                0.09999999403953552,
                -4.74039888381958
            ],
            "min" : [
                3.352592706680298,
                8.940696716308594e-08,
                -5.280483722686768
            ],
            "type" : "VEC3"
        },
        {
            "bufferView" : 5,
            "componentType" : 5126,
            "count" : 594,
            "type" : "VEC3"
        },
        {
            "bufferView" : 6,
            "componentType" : 5126,
            "count" : 594,
            "type" : "VEC2"
        },
        {
            "bufferView" : 7,
            "componentType" : 5123,
            "count" : 684,
            "type" : "SCALAR"
        }
    ],
    "bufferViews" : [
        {
            "buffer" : 0,
            "byteLength" : 4968,
            "byteOffset" : 0
        },
        {
            "buffer" : 0,
            "byteLength" : 4968,
            "byteOffset" : 4968
        },
        {
            "buffer" : 0,
            "byteLength" : 3312,
            "byteOffset" : 9936
        },
        {
            "buffer" : 0,
            "byteLength" : 936,
            "byteOffset" : 13248
        },
        {
            "buffer" : 0,
            "byteLength" : 7128,
            "byteOffset" : 14184
        },
        {
            "buffer" : 0,
            "byteLength" : 7128,
            "byteOffset" : 21312
        },
        {
            "buffer" : 0,
            "byteLength" : 4752,
            "byteOffset" : 28440
        },
        {
            "buffer" : 0,
            "byteLength" : 1368,
            "byteOffset" : 33192
        }
    ],
    "buffers" : [
        {
            "byteLength" : 34560,
            "uri" : "data:application/octet-stream;base64,"
        }
    ]
}
