{
    "asset" : {
        "generator" : "Khronos glTF Blender I/O v0.9.36",
        "version" : "2.0"
    },
    "scene" : 0,
    "scenes" : [
        {
            "name" : "Scene",
            "nodes" : [
                0,
                1
            ]
        }
    ],
    "nodes" : [
        {
            "mesh" : 0,
            "name" : "Letter_C_Font_mat_0.001",
            "translation" : [
                2.0889949798583984,
                -0.0500030517578125,
                5.015951156616211
            ]
        },
        {
            "mesh" : 1,
            "name" : "Letter_O_Font_mat_0.001",
            "translation" : [
                3.3335537910461426,
                -0.049925390630960464,
                4.29059362411499
            ]
        }
    ],
    "materials" : [
        {
            "doubleSided" : true,
            "emissiveFactor" : [
                0,
                0,
                0
            ],
            "name" : "Font_mat.022",
            "pbrMetallicRoughness" : {
                "baseColorFactor" : [
                    1,
                    1,
                    1,
                    1
                ],
                "metallicFactor" : 0,
                "roughnessFactor" : 0.6000000238418579
            }
        }
    ],
    "meshes" : [
        {
            "name" : "Letter_C_Font_mat_0.012",
            "primitives" : [
                {
                    "attributes" : {
                        "POSITION" : 0,
                        "NORMAL" : 1,
                        "TEXCOORD_0" : 2
                    },
                    "indices" : 3,
                    "material" : 0
                }
            ]
        },
        {
            "name" : "Letter_O_Font_mat_0.012",
            "primitives" : [
                {
                    "attributes" : {
                        "POSITION" : 4,
                        "NORMAL" : 5,
                        "TEXCOORD_0" : 6
                    },
                    "indices" : 7,
                    "material" : 0
                }
            ]
        }
    ],
    "accessors" : [
        {
            "bufferView" : 0,
            "componentType" : 5126,
            "count" : 471,
            "max" : [
                -2.1398463249206543,
                0.09999999403953552,
                -4.741865158081055
            ],
            "min" : [
                -2.679007053375244,
                8.940696716308594e-08,
                -5.281949996948242
            ],
            "type" : "VEC3"
        },
        {
            "bufferView" : 1,
            "componentType" : 5126,
            "count" : 471,
            "type" : "VEC3"
        },
        {
            "bufferView" : 2,
            "componentType" : 5126,
            "count" : 471,
            "type" : "VEC2"
        },
        {
            "bufferView" : 3,
            "componentType" : 5123,
            "count" : 516,
            "type" : "SCALAR"
        },
        {
            "bufferView" : 4,
            "componentType" : 5126,
            "count" : 546,
            "max" : [
                -2.7397778034210205,
                0.09999999403953552,
                -4.009095668792725
            ],
            "min" : [
                -3.2789385318756104,
                8.940696716308594e-08,
                -4.549180507659912
            ],
            "type" : "VEC3"
        },
        {
            "bufferView" : 5,
            "componentType" : 5126,
            "count" : 546,
            "type" : "VEC3"
        },
        {
            "bufferView" : 6,
            "componentType" : 5126,
            "count" : 546,
            "type" : "VEC2"
        },
        {
            "bufferView" : 7,
            "componentType" : 5123,
            "count" : 624,
            "type" : "SCALAR"
        }
    ],
    "bufferViews" : [
        {
            "buffer" : 0,
            "byteLength" : 5652,
            "byteOffset" : 0
        },
        {
            "buffer" : 0,
            "byteLength" : 5652,
            "byteOffset" : 5652
        },
        {
            "buffer" : 0,
            "byteLength" : 3768,
            "byteOffset" : 11304
        },
        {
            "buffer" : 0,
            "byteLength" : 1032,
            "byteOffset" : 15072
        },
        {
            "buffer" : 0,
            "byteLength" : 6552,
            "byteOffset" : 16104
        },
        {
            "buffer" : 0,
            "byteLength" : 6552,
            "byteOffset" : 22656
        },
        {
            "buffer" : 0,
            "byteLength" : 4368,
            "byteOffset" : 29208
        },
        {
            "buffer" : 0,
            "byteLength" : 1248,
            "byteOffset" : 33576
        }
    ],
    "buffers" : [
        {
            "byteLength" : 34824,
            "uri" : "data:application/octet-stream;base64,"
        }
    ]
}
