{
    "asset" : {
        "generator" : "Khronos glTF Blender I/O v0.9.36",
        "version" : "2.0"
    },
    "scene" : 0,
    "scenes" : [
        {
            "name" : "Scene",
            "nodes" : [
                0,
                1
            ]
        }
    ],
    "nodes" : [
        {
            "mesh" : 0,
            "name" : "Letter_E_Font_mat_0.001",
            "translation" : [
                0.8945550322532654,
                -0.017638567835092545,
                5.01171875
            ]
        },
        {
            "mesh" : 1,
            "name" : "Letter_S_Font_mat_0.001",
            "translation" : [
                0.9108343124389648,
                -0.014310073107481003,
                4.290089130401611
            ]
        }
    ],
    "materials" : [
        {
            "doubleSided" : true,
            "emissiveFactor" : [
                0,
                0,
                0
            ],
            "name" : "Font_mat.004",
            "pbrMetallicRoughness" : {
                "baseColorFactor" : [
                    1,
                    1,
                    1,
                    1
                ],
                "metallicFactor" : 0,
                "roughnessFactor" : 0.6000000238418579
            }
        },
        {
            "doubleSided" : true,
            "emissiveFactor" : [
                0,
                0,
                0
            ],
            "name" : "Font_mat.006",
            "pbrMetallicRoughness" : {
                "baseColorFactor" : [
                    1,
                    1,
                    1,
                    1
                ],
                "metallicFactor" : 0,
                "roughnessFactor" : 0.6000000238418579
            }
        }
    ],
    "meshes" : [
        {
            "name" : "Letter_E_Font_mat_0.002",
            "primitives" : [
                {
                    "attributes" : {
                        "POSITION" : 0,
                        "NORMAL" : 1,
                        "TEXCOORD_0" : 2
                    },
                    "indices" : 3,
                    "material" : 0
                }
            ]
        },
        {
            "name" : "Letter_S_Font_mat_0.003",
            "primitives" : [
                {
                    "attributes" : {
                        "POSITION" : 4,
                        "NORMAL" : 5,
                        "TEXCOORD_0" : 6
                    },
                    "indices" : 7,
                    "material" : 1
                }
            ]
        }
    ],
    "accessors" : [
        {
            "bufferView" : 0,
            "componentType" : 5126,
            "count" : 508,
            "max" : [
                -0.917732834815979,
                0.09999999403953552,
                -4.736950397491455
            ],
            "min" : [
                -1.4568935632705688,
                8.940696716308594e-08,
                -5.277035236358643
            ],
            "type" : "VEC3"
        },
        {
            "bufferView" : 1,
            "componentType" : 5126,
            "count" : 508,
            "type" : "VEC3"
        },
        {
            "bufferView" : 2,
            "componentType" : 5126,
            "count" : 508,
            "type" : "VEC2"
        },
        {
            "bufferView" : 3,
            "componentType" : 5123,
            "count" : 612,
            "type" : "SCALAR"
        },
        {
            "bufferView" : 4,
            "componentType" : 5126,
            "count" : 546,
            "max" : [
                -0.3257225751876831,
                0.09999999403953552,
                -4.011655330657959
            ],
            "min" : [
                -0.8648833632469177,
                8.940696716308594e-08,
                -4.5517401695251465
            ],
            "type" : "VEC3"
        },
        {
            "bufferView" : 5,
            "componentType" : 5126,
            "count" : 546,
            "type" : "VEC3"
        },
        {
            "bufferView" : 6,
            "componentType" : 5126,
            "count" : 546,
            "type" : "VEC2"
        },
        {
            "bufferView" : 7,
            "componentType" : 5123,
            "count" : 612,
            "type" : "SCALAR"
        }
    ],
    "bufferViews" : [
        {
            "buffer" : 0,
            "byteLength" : 6096,
            "byteOffset" : 0
        },
        {
            "buffer" : 0,
            "byteLength" : 6096,
            "byteOffset" : 6096
        },
        {
            "buffer" : 0,
            "byteLength" : 4064,
            "byteOffset" : 12192
        },
        {
            "buffer" : 0,
            "byteLength" : 1224,
            "byteOffset" : 16256
        },
        {
            "buffer" : 0,
            "byteLength" : 6552,
            "byteOffset" : 17480
        },
        {
            "buffer" : 0,
            "byteLength" : 6552,
            "byteOffset" : 24032
        },
        {
            "buffer" : 0,
            "byteLength" : 4368,
            "byteOffset" : 30584
        },
        {
            "buffer" : 0,
            "byteLength" : 1224,
            "byteOffset" : 34952
        }
    ],
    "buffers" : [
        {
            "byteLength" : 36176,
            "uri" : "data:application/octet-stream;base64,"
        }
    ]
}
