# Blender v2.80 (sub 75) OBJ File: ''
# www.blender.org
mtllib untitled.mtl
o Letter_A_Font_mat_0
v -0.270019 0.094992 0.334466
v -0.192996 0.094992 0.334466
v -0.192996 0.094992 0.257310
v -0.270019 0.094992 0.257310
v 0.192119 0.094992 0.334466
v 0.269142 0.094992 0.334466
v 0.269142 0.094992 0.257310
v 0.192119 0.094992 0.257310
v 0.115096 0.094992 0.334466
v 0.115096 0.094992 0.257310
v -0.115973 0.094992 0.334466
v -0.115973 0.094992 0.257310
v 0.038073 0.094992 -0.128462
v 0.115096 0.094992 -0.128462
v 0.115096 0.094992 -0.205618
v 0.038073 0.094992 -0.205618
v -0.038950 0.094992 -0.128462
v -0.038950 0.094992 -0.205618
v -0.115973 0.094992 -0.128462
v -0.115973 0.094992 -0.205618
v 0.115096 0.094992 -0.051306
v 0.192119 0.094992 -0.051306
v 0.192119 0.094992 -0.128462
v 0.038073 0.094992 -0.051306
v -0.115973 0.094992 -0.051306
v -0.038950 0.094992 -0.051306
v -0.192996 0.094992 -0.051306
v -0.192996 0.094992 -0.128462
v 0.192119 0.094992 0.025842
v 0.269142 0.094992 0.025842
v 0.269142 0.094992 -0.051306
v 0.115096 0.094992 0.025842
v -0.192996 0.094992 0.025842
v -0.115973 0.094992 0.025842
v -0.270019 0.094992 0.025842
v -0.270019 0.094992 -0.051306
v 0.192119 0.094992 0.102998
v 0.269142 0.094992 0.102998
v 0.115096 0.094992 0.102998
v -0.192996 0.094992 0.102998
v -0.115973 0.094992 0.102998
v -0.270019 0.094992 0.102998
v 0.192119 0.094992 0.180154
v 0.269142 0.094992 0.180154
v 0.115096 0.094992 0.180154
v 0.038073 0.094992 0.180154
v 0.038073 0.094992 0.102998
v -0.038950 0.094992 0.180154
v -0.038950 0.094992 0.102998
v -0.115973 0.094992 0.180154
v -0.192996 0.094992 0.180154
v -0.270019 0.094992 0.180154
v -0.270019 -0.005008 0.334466
v -0.270019 -0.005008 0.257310
v -0.192996 -0.005008 0.257310
v -0.192996 -0.005008 0.334466
v 0.192119 -0.005008 0.334466
v 0.192119 -0.005008 0.257310
v 0.269142 -0.005008 0.257310
v 0.269142 -0.005008 0.334466
v 0.115096 -0.005008 0.334466
v 0.115096 -0.005008 0.257310
v -0.115973 -0.005008 0.257310
v -0.115973 -0.005008 0.334466
v 0.038073 -0.005008 -0.128462
v 0.038073 -0.005008 -0.205618
v 0.115096 -0.005008 -0.205618
v 0.115096 -0.005008 -0.128462
v -0.038950 -0.005008 -0.128462
v -0.038950 -0.005008 -0.205618
v -0.115973 -0.005008 -0.128462
v -0.115973 -0.005008 -0.205618
v 0.115096 -0.005008 -0.051306
v 0.192119 -0.005008 -0.128462
v 0.192119 -0.005008 -0.051306
v 0.038073 -0.005008 -0.051306
v -0.115973 -0.005008 -0.051306
v -0.038950 -0.005008 -0.051306
v -0.192996 -0.005008 -0.051306
v -0.192996 -0.005008 -0.128462
v 0.192119 -0.005008 0.025842
v 0.269142 -0.005008 -0.051306
v 0.269142 -0.005008 0.025842
v 0.115096 -0.005008 0.025842
v -0.192996 -0.005008 0.025842
v -0.115973 -0.005008 0.025842
v -0.270019 -0.005008 0.025842
v -0.270019 -0.005008 -0.051306
v 0.192119 -0.005008 0.102998
v 0.269142 -0.005008 0.102998
v 0.115096 -0.005008 0.102998
v -0.192996 -0.005008 0.102998
v -0.115973 -0.005008 0.102998
v -0.270019 -0.005008 0.102998
v 0.192119 -0.005008 0.180154
v 0.269142 -0.005008 0.180154
v 0.115096 -0.005008 0.180154
v 0.038073 -0.005008 0.180154
v 0.038073 -0.005008 0.102998
v -0.038950 -0.005008 0.180154
v -0.038950 -0.005008 0.102998
v -0.115973 -0.005008 0.180154
v -0.192996 -0.005008 0.180154
v -0.270019 -0.005008 0.180154
v -0.270019 -0.005008 0.334466
v -0.192996 -0.005008 0.334466
v -0.192996 0.094992 0.334466
v -0.270019 0.094992 0.334466
v -0.270019 -0.005008 0.257310
v -0.270019 -0.005008 0.334466
v -0.270019 0.094992 0.334466
v -0.270019 0.094992 0.257310
v 0.192119 -0.005008 0.334466
v 0.269142 -0.005008 0.334466
v 0.269142 0.094992 0.334466
v 0.192119 0.094992 0.334466
v 0.269142 -0.005008 0.334466
v 0.269142 -0.005008 0.257310
v 0.269142 0.094992 0.257310
v 0.269142 0.094992 0.334466
v 0.115096 -0.005008 0.334466
v 0.115096 0.094992 0.334466
v 0.115096 -0.005008 0.257310
v 0.115096 -0.005008 0.334466
v 0.115096 0.094992 0.334466
v 0.115096 0.094992 0.257310
v -0.115973 -0.005008 0.334466
v -0.115973 0.094992 0.334466
v -0.115973 -0.005008 0.334466
v -0.115973 -0.005008 0.257310
v -0.115973 0.094992 0.257310
v -0.115973 0.094992 0.334466
v 0.115096 -0.005008 -0.128462
v 0.115096 -0.005008 -0.205618
v 0.115096 0.094992 -0.205618
v 0.115096 0.094992 -0.128462
v 0.115096 -0.005008 -0.205618
v 0.038073 -0.005008 -0.205618
v 0.038073 0.094992 -0.205618
v 0.115096 0.094992 -0.205618
v -0.038950 -0.005008 -0.128462
v 0.038073 -0.005008 -0.128462
v 0.038073 0.094992 -0.128462
v -0.038950 0.094992 -0.128462
v -0.038950 -0.005008 -0.205618
v -0.038950 0.094992 -0.205618
v -0.115973 -0.005008 -0.205618
v -0.115973 0.094992 -0.205618
v -0.115973 -0.005008 -0.205618
v -0.115973 -0.005008 -0.128462
v -0.115973 0.094992 -0.128462
v -0.115973 0.094992 -0.205618
v 0.192119 -0.005008 -0.051306
v 0.192119 -0.005008 -0.128462
v 0.192119 0.094992 -0.128462
v 0.192119 0.094992 -0.051306
v 0.192119 -0.005008 -0.128462
v 0.115096 -0.005008 -0.128462
v 0.115096 0.094992 -0.128462
v 0.192119 0.094992 -0.128462
v 0.038073 -0.005008 -0.051306
v 0.115096 -0.005008 -0.051306
v 0.115096 0.094992 -0.051306
v 0.038073 0.094992 -0.051306
v 0.038073 -0.005008 -0.128462
v 0.038073 -0.005008 -0.051306
v 0.038073 0.094992 -0.051306
v 0.038073 0.094992 -0.128462
v -0.115973 -0.005008 -0.051306
v -0.038950 -0.005008 -0.051306
v -0.038950 0.094992 -0.051306
v -0.115973 0.094992 -0.051306
v -0.038950 -0.005008 -0.051306
v -0.038950 -0.005008 -0.128462
v -0.038950 0.094992 -0.128462
v -0.038950 0.094992 -0.051306
v -0.115973 -0.005008 -0.128462
v -0.192996 -0.005008 -0.128462
v -0.192996 0.094992 -0.128462
v -0.115973 0.094992 -0.128462
v -0.192996 -0.005008 -0.128462
v -0.192996 -0.005008 -0.051306
v -0.192996 0.094992 -0.051306
v -0.192996 0.094992 -0.128462
v 0.269142 -0.005008 0.025842
v 0.269142 -0.005008 -0.051306
v 0.269142 0.094992 -0.051306
v 0.269142 0.094992 0.025842
v 0.269142 -0.005008 -0.051306
v 0.192119 -0.005008 -0.051306
v 0.192119 0.094992 -0.051306
v 0.269142 0.094992 -0.051306
v 0.115096 -0.005008 -0.051306
v 0.115096 -0.005008 0.025842
v 0.115096 0.094992 0.025842
v 0.115096 0.094992 -0.051306
v -0.115973 -0.005008 0.025842
v -0.115973 -0.005008 -0.051306
v -0.115973 0.094992 -0.051306
v -0.115973 0.094992 0.025842
v -0.192996 -0.005008 -0.051306
v -0.270019 -0.005008 -0.051306
v -0.270019 0.094992 -0.051306
v -0.192996 0.094992 -0.051306
v -0.270019 -0.005008 -0.051306
v -0.270019 -0.005008 0.025842
v -0.270019 0.094992 0.025842
v -0.270019 0.094992 -0.051306
v 0.269142 -0.005008 0.102998
v 0.269142 0.094992 0.102998
v 0.115096 -0.005008 0.102998
v 0.115096 0.094992 0.102998
v -0.115973 -0.005008 0.102998
v -0.115973 0.094992 0.102998
v -0.270019 -0.005008 0.102998
v -0.270019 0.094992 0.102998
v 0.269142 -0.005008 0.180154
v 0.269142 0.094992 0.180154
v 0.038073 -0.005008 0.180154
v 0.115096 -0.005008 0.180154
v 0.115096 0.094992 0.180154
v 0.038073 0.094992 0.180154
v 0.115096 -0.005008 0.102998
v 0.038073 -0.005008 0.102998
v 0.038073 0.094992 0.102998
v 0.115096 0.094992 0.102998
v -0.038950 -0.005008 0.180154
v -0.038950 0.094992 0.180154
v -0.038950 -0.005008 0.102998
v -0.038950 0.094992 0.102998
v -0.115973 -0.005008 0.180154
v -0.115973 0.094992 0.180154
v -0.115973 -0.005008 0.102998
v -0.115973 0.094992 0.102998
v -0.270019 -0.005008 0.180154
v -0.270019 0.094992 0.180154
v 0.115096 -0.005008 0.180154
v 0.115096 0.094992 0.180154
v -0.115973 -0.005008 0.180154
v -0.115973 0.094992 0.180154
vt 0.527552 0.535683
vt 0.533241 0.541371
vt 0.538939 0.535673
vt 0.533250 0.529985
vt 0.561681 0.569812
vt 0.567370 0.575500
vt 0.573068 0.569802
vt 0.567379 0.564114
vt 0.555993 0.564124
vt 0.561691 0.558426
vt 0.538929 0.547059
vt 0.544627 0.541361
vt 0.584493 0.524248
vt 0.590181 0.529936
vt 0.595879 0.524238
vt 0.590191 0.518550
vt 0.578804 0.518560
vt 0.584502 0.512862
vt 0.573116 0.512872
vt 0.578814 0.507174
vt 0.584483 0.535634
vt 0.590171 0.541322
vt 0.595869 0.535624
vt 0.578795 0.529946
vt 0.567418 0.518570
vt 0.573106 0.524258
vt 0.561730 0.512881
vt 0.567428 0.507183
vt 0.584473 0.547020
vt 0.590162 0.552708
vt 0.595859 0.547010
vt 0.578785 0.541332
vt 0.556033 0.518579
vt 0.561721 0.524267
vt 0.550344 0.512891
vt 0.556042 0.507193
vt 0.578775 0.552718
vt 0.584464 0.558406
vt 0.573087 0.547030
vt 0.550335 0.524277
vt 0.556023 0.529965
vt 0.544646 0.518589
vt 0.573077 0.558416
vt 0.578766 0.564104
vt 0.567389 0.552728
vt 0.561701 0.547039
vt 0.567399 0.541341
vt 0.556013 0.541351
vt 0.561711 0.535653
vt 0.550325 0.535663
vt 0.544637 0.529975
vt 0.538948 0.524287
vt 0.565619 0.672204
vt 0.571317 0.666506
vt 0.565628 0.660818
vt 0.559930 0.666516
vt 0.531490 0.638075
vt 0.537188 0.632377
vt 0.531499 0.626689
vt 0.525801 0.632387
vt 0.537178 0.643763
vt 0.542876 0.638065
vt 0.559940 0.655130
vt 0.554242 0.660828
vt 0.577053 0.615264
vt 0.582751 0.609566
vt 0.577063 0.603878
vt 0.571365 0.609576
vt 0.582742 0.620952
vt 0.588440 0.615254
vt 0.588430 0.626640
vt 0.594128 0.620942
vt 0.565667 0.615274
vt 0.565677 0.603887
vt 0.559979 0.609585
vt 0.571355 0.620962
vt 0.582732 0.632338
vt 0.577044 0.626650
vt 0.588420 0.638026
vt 0.594118 0.632328
vt 0.554282 0.615283
vt 0.554291 0.603897
vt 0.548593 0.609595
vt 0.559970 0.620971
vt 0.582722 0.643724
vt 0.577034 0.638036
vt 0.588411 0.649412
vt 0.594108 0.643714
vt 0.548584 0.620981
vt 0.542895 0.615293
vt 0.554272 0.626669
vt 0.577024 0.649422
vt 0.571336 0.643734
vt 0.582713 0.655110
vt 0.542886 0.626679
vt 0.537197 0.620991
vt 0.548574 0.632367
vt 0.554262 0.638055
vt 0.559960 0.632357
vt 0.559950 0.643743
vt 0.565648 0.638045
vt 0.565638 0.649432
vt 0.571326 0.655120
vt 0.577015 0.660808
vt 0.801606 0.676665
vt 0.801607 0.684710
vt 0.812051 0.684708
vt 0.812050 0.676664
vt 0.801605 0.668607
vt 0.801606 0.676665
vt 0.812050 0.676664
vt 0.812049 0.668606
vt 0.801585 0.499498
vt 0.801586 0.507542
vt 0.812030 0.507541
vt 0.812029 0.499497
vt 0.801586 0.507542
vt 0.801587 0.515600
vt 0.812031 0.515599
vt 0.812030 0.507541
vt 0.801584 0.491453
vt 0.812028 0.491452
vt 0.801583 0.483395
vt 0.801584 0.491453
vt 0.812028 0.491452
vt 0.812027 0.483394
vt 0.801607 0.692754
vt 0.812052 0.692753
vt 0.801607 0.692754
vt 0.801608 0.700812
vt 0.812052 0.700811
vt 0.812052 0.692753
vt 0.801593 0.571979
vt 0.801594 0.580037
vt 0.812038 0.580036
vt 0.812037 0.571978
vt 0.801594 0.580037
vt 0.801595 0.588082
vt 0.812039 0.588080
vt 0.812038 0.580036
vt 0.964425 0.345729
vt 0.964425 0.353774
vt 0.974869 0.353773
vt 0.974869 0.345729
vt 0.801596 0.596126
vt 0.812040 0.596125
vt 0.801597 0.604170
vt 0.812041 0.604169
vt 0.801597 0.604170
vt 0.801598 0.612228
vt 0.812042 0.612227
vt 0.812041 0.604169
vt 0.801591 0.555877
vt 0.801592 0.563935
vt 0.812036 0.563933
vt 0.812035 0.555875
vt 0.801592 0.563935
vt 0.801593 0.571979
vt 0.812037 0.571978
vt 0.812036 0.563933
vt 0.964426 0.361832
vt 0.964426 0.369876
vt 0.974870 0.369875
vt 0.974870 0.361831
vt 0.964425 0.353774
vt 0.964426 0.361832
vt 0.974870 0.361831
vt 0.974869 0.353773
vt 0.964424 0.329627
vt 0.964424 0.337671
vt 0.974868 0.337670
vt 0.974868 0.329626
vt 0.964424 0.337671
vt 0.964425 0.345729
vt 0.974869 0.345729
vt 0.974868 0.337670
vt 0.801598 0.612228
vt 0.801599 0.620273
vt 0.812043 0.620271
vt 0.812042 0.612227
vt 0.801599 0.620273
vt 0.801600 0.628331
vt 0.812044 0.628330
vt 0.812043 0.620271
vt 0.801589 0.539775
vt 0.801590 0.547832
vt 0.812034 0.547831
vt 0.812033 0.539774
vt 0.801590 0.547832
vt 0.801591 0.555877
vt 0.812035 0.555875
vt 0.812034 0.547831
vt 0.964426 0.369876
vt 0.964427 0.377934
vt 0.974871 0.377933
vt 0.974870 0.369875
vt 0.964429 0.418183
vt 0.964429 0.426240
vt 0.974873 0.426240
vt 0.974873 0.418182
vt 0.801600 0.628331
vt 0.801601 0.636375
vt 0.812045 0.636374
vt 0.812044 0.628330
vt 0.801601 0.636375
vt 0.801602 0.644433
vt 0.812046 0.644431
vt 0.812045 0.636374
vt 0.801588 0.531717
vt 0.812032 0.531715
vt 0.964427 0.385992
vt 0.974871 0.385991
vt 0.964428 0.410125
vt 0.974872 0.410124
vt 0.801603 0.652491
vt 0.812047 0.652490
vt 0.801588 0.523658
vt 0.812032 0.523657
vt 0.801611 0.724959
vt 0.801612 0.733003
vt 0.812056 0.733002
vt 0.812055 0.724958
vt 0.964427 0.385992
vt 0.964427 0.394036
vt 0.974871 0.394035
vt 0.974871 0.385991
vt 0.801610 0.716915
vt 0.812054 0.716913
vt 0.964428 0.402080
vt 0.974872 0.402080
vt 0.801609 0.708870
vt 0.812053 0.708869
vt 0.964428 0.410125
vt 0.974872 0.410124
vt 0.801604 0.660549
vt 0.812048 0.660548
vt 0.801582 0.475337
vt 0.812026 0.475336
vt 0.801609 0.708870
vt 0.812053 0.708869
vn 0.0000 1.0000 0.0000
vn 0.0000 -1.0000 0.0000
vn 0.0000 0.0000 1.0000
vn -1.0000 0.0000 0.0000
vn 1.0000 0.0000 0.0000
vn 0.0000 0.0000 -1.0000
usemtl Font_mat
s off
f 1/1/1 2/2/1 3/3/1
f 1/1/1 3/3/1 4/4/1
f 5/5/1 6/6/1 7/7/1
f 5/5/1 7/7/1 8/8/1
f 9/9/1 5/5/1 8/8/1
f 9/9/1 8/8/1 10/10/1
f 2/2/1 11/11/1 12/12/1
f 2/2/1 12/12/1 3/3/1
f 13/13/1 14/14/1 15/15/1
f 13/13/1 15/15/1 16/16/1
f 17/17/1 13/13/1 16/16/1
f 17/17/1 16/16/1 18/18/1
f 19/19/1 17/17/1 18/18/1
f 19/19/1 18/18/1 20/20/1
f 21/21/1 22/22/1 23/23/1
f 21/21/1 23/23/1 14/14/1
f 24/24/1 21/21/1 14/14/1
f 24/24/1 14/14/1 13/13/1
f 25/25/1 26/26/1 17/17/1
f 25/25/1 17/17/1 19/19/1
f 27/27/1 25/25/1 19/19/1
f 27/27/1 19/19/1 28/28/1
f 29/29/1 30/30/1 31/31/1
f 29/29/1 31/31/1 22/22/1
f 32/32/1 29/29/1 22/22/1
f 32/32/1 22/22/1 21/21/1
f 33/33/1 34/34/1 25/25/1
f 33/33/1 25/25/1 27/27/1
f 35/35/1 33/33/1 27/27/1
f 35/35/1 27/27/1 36/36/1
f 37/37/1 38/38/1 30/30/1
f 37/37/1 30/30/1 29/29/1
f 39/39/1 37/37/1 29/29/1
f 39/39/1 29/29/1 32/32/1
f 40/40/1 41/41/1 34/34/1
f 40/40/1 34/34/1 33/33/1
f 42/42/1 40/40/1 33/33/1
f 42/42/1 33/33/1 35/35/1
f 43/43/1 44/44/1 38/38/1
f 43/43/1 38/38/1 37/37/1
f 45/45/1 43/43/1 37/37/1
f 45/45/1 37/37/1 39/39/1
f 46/46/1 45/45/1 39/39/1
f 46/46/1 39/39/1 47/47/1
f 48/48/1 46/46/1 47/47/1
f 48/48/1 47/47/1 49/49/1
f 50/50/1 48/48/1 49/49/1
f 50/50/1 49/49/1 41/41/1
f 51/51/1 50/50/1 41/41/1
f 51/51/1 41/41/1 40/40/1
f 52/52/1 51/51/1 40/40/1
f 52/52/1 40/40/1 42/42/1
f 8/8/1 7/7/1 44/44/1
f 8/8/1 44/44/1 43/43/1
f 10/10/1 8/8/1 43/43/1
f 10/10/1 43/43/1 45/45/1
f 3/3/1 12/12/1 50/50/1
f 3/3/1 50/50/1 51/51/1
f 4/4/1 3/3/1 51/51/1
f 4/4/1 51/51/1 52/52/1
f 53/53/2 54/54/2 55/55/2
f 53/53/2 55/55/2 56/56/2
f 57/57/2 58/58/2 59/59/2
f 57/57/2 59/59/2 60/60/2
f 61/61/2 62/62/2 58/58/2
f 61/61/2 58/58/2 57/57/2
f 56/56/2 55/55/2 63/63/2
f 56/56/2 63/63/2 64/64/2
f 65/65/2 66/66/2 67/67/2
f 65/65/2 67/67/2 68/68/2
f 69/69/2 70/70/2 66/66/2
f 69/69/2 66/66/2 65/65/2
f 71/71/2 72/72/2 70/70/2
f 71/71/2 70/70/2 69/69/2
f 73/73/2 68/68/2 74/74/2
f 73/73/2 74/74/2 75/75/2
f 76/76/2 65/65/2 68/68/2
f 76/76/2 68/68/2 73/73/2
f 77/77/2 71/71/2 69/69/2
f 77/77/2 69/69/2 78/78/2
f 79/79/2 80/80/2 71/71/2
f 79/79/2 71/71/2 77/77/2
f 81/81/2 75/75/2 82/82/2
f 81/81/2 82/82/2 83/83/2
f 84/84/2 73/73/2 75/75/2
f 84/84/2 75/75/2 81/81/2
f 85/85/2 79/79/2 77/77/2
f 85/85/2 77/77/2 86/86/2
f 87/87/2 88/88/2 79/79/2
f 87/87/2 79/79/2 85/85/2
f 89/89/2 81/81/2 83/83/2
f 89/89/2 83/83/2 90/90/2
f 91/91/2 84/84/2 81/81/2
f 91/91/2 81/81/2 89/89/2
f 92/92/2 85/85/2 86/86/2
f 92/92/2 86/86/2 93/93/2
f 94/94/2 87/87/2 85/85/2
f 94/94/2 85/85/2 92/92/2
f 95/95/2 89/89/2 90/90/2
f 95/95/2 90/90/2 96/96/2
f 97/97/2 91/91/2 89/89/2
f 97/97/2 89/89/2 95/95/2
f 98/98/2 99/99/2 91/91/2
f 98/98/2 91/91/2 97/97/2
f 100/100/2 101/101/2 99/99/2
f 100/100/2 99/99/2 98/98/2
f 102/102/2 93/93/2 101/101/2
f 102/102/2 101/101/2 100/100/2
f 103/103/2 92/92/2 93/93/2
f 103/103/2 93/93/2 102/102/2
f 104/104/2 94/94/2 92/92/2
f 104/104/2 92/92/2 103/103/2
f 58/58/2 95/95/2 96/96/2
f 58/58/2 96/96/2 59/59/2
f 62/62/2 97/97/2 95/95/2
f 62/62/2 95/95/2 58/58/2
f 55/55/2 103/103/2 102/102/2
f 55/55/2 102/102/2 63/63/2
f 54/54/2 104/104/2 103/103/2
f 54/54/2 103/103/2 55/55/2
f 105/105/3 106/106/3 107/107/3
f 105/105/3 107/107/3 108/108/3
f 109/109/4 110/110/4 111/111/4
f 109/109/4 111/111/4 112/112/4
f 113/113/3 114/114/3 115/115/3
f 113/113/3 115/115/3 116/116/3
f 117/117/5 118/118/5 119/119/5
f 117/117/5 119/119/5 120/120/5
f 121/121/3 113/113/3 116/116/3
f 121/121/3 116/116/3 122/122/3
f 123/123/4 124/124/4 125/125/4
f 123/123/4 125/125/4 126/126/4
f 106/106/3 127/127/3 128/128/3
f 106/106/3 128/128/3 107/107/3
f 129/129/5 130/130/5 131/131/5
f 129/129/5 131/131/5 132/132/5
f 133/133/5 134/134/5 135/135/5
f 133/133/5 135/135/5 136/136/5
f 137/137/6 138/138/6 139/139/6
f 137/137/6 139/139/6 140/140/6
f 141/141/3 142/142/3 143/143/3
f 141/141/3 143/143/3 144/144/3
f 138/138/6 145/145/6 146/146/6
f 138/138/6 146/146/6 139/139/6
f 145/145/6 147/147/6 148/148/6
f 145/145/6 148/148/6 146/146/6
f 149/149/4 150/150/4 151/151/4
f 149/149/4 151/151/4 152/152/4
f 153/153/5 154/154/5 155/155/5
f 153/153/5 155/155/5 156/156/5
f 157/157/6 158/158/6 159/159/6
f 157/157/6 159/159/6 160/160/6
f 161/161/3 162/162/3 163/163/3
f 161/161/3 163/163/3 164/164/3
f 165/165/4 166/166/4 167/167/4
f 165/165/4 167/167/4 168/168/4
f 169/169/3 170/170/3 171/171/3
f 169/169/3 171/171/3 172/172/3
f 173/173/5 174/174/5 175/175/5
f 173/173/5 175/175/5 176/176/5
f 177/177/6 178/178/6 179/179/6
f 177/177/6 179/179/6 180/180/6
f 181/181/4 182/182/4 183/183/4
f 181/181/4 183/183/4 184/184/4
f 185/185/5 186/186/5 187/187/5
f 185/185/5 187/187/5 188/188/5
f 189/189/6 190/190/6 191/191/6
f 189/189/6 191/191/6 192/192/6
f 193/193/4 194/194/4 195/195/4
f 193/193/4 195/195/4 196/196/4
f 197/197/5 198/198/5 199/199/5
f 197/197/5 199/199/5 200/200/5
f 201/201/6 202/202/6 203/203/6
f 201/201/6 203/203/6 204/204/6
f 205/205/4 206/206/4 207/207/4
f 205/205/4 207/207/4 208/208/4
f 209/209/5 185/185/5 188/188/5
f 209/209/5 188/188/5 210/210/5
f 194/194/4 211/211/4 212/212/4
f 194/194/4 212/212/4 195/195/4
f 213/213/5 197/197/5 200/200/5
f 213/213/5 200/200/5 214/214/5
f 206/206/4 215/215/4 216/216/4
f 206/206/4 216/216/4 207/207/4
f 217/217/5 209/209/5 210/210/5
f 217/217/5 210/210/5 218/218/5
f 219/219/3 220/220/3 221/221/3
f 219/219/3 221/221/3 222/222/3
f 223/223/6 224/224/6 225/225/6
f 223/223/6 225/225/6 226/226/6
f 227/227/3 219/219/3 222/222/3
f 227/227/3 222/222/3 228/228/3
f 224/224/6 229/229/6 230/230/6
f 224/224/6 230/230/6 225/225/6
f 231/231/3 227/227/3 228/228/3
f 231/231/3 228/228/3 232/232/3
f 229/229/6 233/233/6 234/234/6
f 229/229/6 234/234/6 230/230/6
f 215/215/4 235/235/4 236/236/4
f 215/215/4 236/236/4 216/216/4
f 118/118/5 217/217/5 218/218/5
f 118/118/5 218/218/5 119/119/5
f 237/237/4 123/123/4 126/126/4
f 237/237/4 126/126/4 238/238/4
f 130/130/5 239/239/5 240/240/5
f 130/130/5 240/240/5 131/131/5
f 235/235/4 109/109/4 112/112/4
f 235/235/4 112/112/4 236/236/4
