{
    "asset" : {
        "generator" : "Khronos glTF Blender I/O v0.9.36",
        "version" : "2.0"
    },
    "scene" : 0,
    "scenes" : [
        {
            "name" : "Scene",
            "nodes" : [
                0,
                1
            ]
        }
    ],
    "nodes" : [
        {
            "mesh" : 0,
            "name" : "Letter_E_Font_mat_0.001",
            "translation" : [
                1.4843878746032715,
                -0.019710063934326172,
                5.01368522644043
            ]
        },
        {
            "mesh" : 1,
            "name" : "Letter_T_Font_mat_0.001",
            "translation" : [
                -0.30619707703590393,
                -0.03169374540448189,
                4.282662391662598
            ]
        }
    ],
    "materials" : [
        {
            "doubleSided" : true,
            "emissiveFactor" : [
                0,
                0,
                0
            ],
            "name" : "Font_mat.004",
            "pbrMetallicRoughness" : {
                "baseColorFactor" : [
                    1,
                    1,
                    1,
                    1
                ],
                "metallicFactor" : 0,
                "roughnessFactor" : 0.6000000238418579
            }
        }
    ],
    "meshes" : [
        {
            "name" : "Letter_E_Font_mat_0.002",
            "primitives" : [
                {
                    "attributes" : {
                        "POSITION" : 0,
                        "NORMAL" : 1,
                        "TEXCOORD_0" : 2
                    },
                    "indices" : 3,
                    "material" : 0
                }
            ]
        },
        {
            "name" : "Letter_T_Font_mat_0.002",
            "primitives" : [
                {
                    "attributes" : {
                        "POSITION" : 4,
                        "NORMAL" : 5,
                        "TEXCOORD_0" : 6
                    },
                    "indices" : 7,
                    "material" : 0
                }
            ]
        }
    ],
    "accessors" : [
        {
            "bufferView" : 0,
            "componentType" : 5126,
            "count" : 508,
            "max" : [
                -0.917732834815979,
                0.09999999403953552,
                -4.736950397491455
            ],
            "min" : [
                -1.4568935632705688,
                8.940696716308594e-08,
                -5.277035236358643
            ],
            "type" : "VEC3"
        },
        {
            "bufferView" : 1,
            "componentType" : 5126,
            "count" : 508,
            "type" : "VEC3"
        },
        {
            "bufferView" : 2,
            "componentType" : 5126,
            "count" : 508,
            "type" : "VEC2"
        },
        {
            "bufferView" : 3,
            "componentType" : 5123,
            "count" : 612,
            "type" : "SCALAR"
        },
        {
            "bufferView" : 4,
            "componentType" : 5126,
            "count" : 271,
            "max" : [
                0.27492502331733704,
                0.09999999403953552,
                -4.009151935577393
            ],
            "min" : [
                -0.18721279501914978,
                8.940696716308594e-08,
                -4.54923677444458
            ],
            "type" : "VEC3"
        },
        {
            "bufferView" : 5,
            "componentType" : 5126,
            "count" : 271,
            "type" : "VEC3"
        },
        {
            "bufferView" : 6,
            "componentType" : 5126,
            "count" : 271,
            "type" : "VEC2"
        },
        {
            "bufferView" : 7,
            "componentType" : 5123,
            "count" : 372,
            "type" : "SCALAR"
        }
    ],
    "bufferViews" : [
        {
            "buffer" : 0,
            "byteLength" : 6096,
            "byteOffset" : 0
        },
        {
            "buffer" : 0,
            "byteLength" : 6096,
            "byteOffset" : 6096
        },
        {
            "buffer" : 0,
            "byteLength" : 4064,
            "byteOffset" : 12192
        },
        {
            "buffer" : 0,
            "byteLength" : 1224,
            "byteOffset" : 16256
        },
        {
            "buffer" : 0,
            "byteLength" : 3252,
            "byteOffset" : 17480
        },
        {
            "buffer" : 0,
            "byteLength" : 3252,
            "byteOffset" : 20732
        },
        {
            "buffer" : 0,
            "byteLength" : 2168,
            "byteOffset" : 23984
        },
        {
            "buffer" : 0,
            "byteLength" : 744,
            "byteOffset" : 26152
        }
    ],
    "buffers" : [
        {
            "byteLength" : 26896,
            "uri" : "data:application/octet-stream;base64,"
        }
    ]
}
